<?xml version="1.0" encoding="utf-8"?>
<!-- created with bpmn-js / http://bpmn.io -->
<!DOCTYPE svg PUBLIC "-//W3C//DTD SVG 1.1//EN" "http://www.w3.org/Graphics/SVG/1.1/DTD/svg11.dtd">
<svg xmlns="http://www.w3.org/2000/svg" xmlns:xlink="http://www.w3.org/1999/xlink" width="1615" height="958" viewBox="90 90 1615 958" version="1.1"><defs><marker id="sequenceflow-end-white-hsl_225_10_15_-9s7wdq4om2xl3aqezxlx2vvw1" viewBox="0 0 20 20" refX="11" refY="10" markerWidth="10" markerHeight="10" orient="auto"><path d="M 1 5 L 11 10 L 1 15 Z" style="stroke-linecap: round; stroke-linejoin: round; stroke: rgb(34, 36, 42); stroke-width: 1px; fill: rgb(34, 36, 42);"/></marker><marker id="messageflow-end-white-_999999-9s7wdq4om2xl3aqezxlx2vvw1" viewBox="0 0 20 20" refX="8.5" refY="5" markerWidth="20" markerHeight="20" orient="auto"><path d="m 1 5 l 0 -3 l 7 3 l -7 3 z" style="stroke-linecap: round; stroke-linejoin: round; stroke: rgb(153, 153, 153); stroke-width: 1px; fill: white; stroke-dasharray: 10000, 1;"/></marker><marker id="messageflow-start-white-_999999-9s7wdq4om2xl3aqezxlx2vvw1" viewBox="0 0 20 20" refX="6" refY="6" markerWidth="20" markerHeight="20" orient="auto"><circle cx="6" cy="6" r="3.5" style="stroke-linecap: round; stroke-linejoin: round; stroke: rgb(153, 153, 153); stroke-width: 1px; fill: white; stroke-dasharray: 10000, 1;"/></marker><marker id="messageflow-end-white-hsl_225_10_15_-9s7wdq4om2xl3aqezxlx2vvw1" viewBox="0 0 20 20" refX="8.5" refY="5" markerWidth="20" markerHeight="20" orient="auto"><path d="m 1 5 l 0 -3 l 7 3 l -7 3 z" style="stroke-linecap: round; stroke-linejoin: round; stroke: rgb(34, 36, 42); stroke-width: 1px; fill: white; stroke-dasharray: 10000, 1;"/></marker><marker id="messageflow-start-white-hsl_225_10_15_-9s7wdq4om2xl3aqezxlx2vvw1" viewBox="0 0 20 20" refX="6" refY="6" markerWidth="20" markerHeight="20" orient="auto"><circle cx="6" cy="6" r="3.5" style="stroke-linecap: round; stroke-linejoin: round; stroke: rgb(34, 36, 42); stroke-width: 1px; fill: white; stroke-dasharray: 10000, 1;"/></marker><marker id="sequenceflow-end-white-_ffa500-9s7wdq4om2xl3aqezxlx2vvw1" viewBox="0 0 20 20" refX="11" refY="10" markerWidth="10" markerHeight="10" orient="auto"><path d="M 1 5 L 11 10 L 1 15 Z" style="stroke-linecap: round; stroke-linejoin: round; stroke: rgb(255, 165, 0); stroke-width: 1px; fill: rgb(255, 165, 0);"/></marker><marker id="messageflow-end-white-var_element_dragger_color_-9s7wdq4om2xl3aqezxlx2vvw1" viewBox="0 0 20 20" refX="8.5" refY="5" markerWidth="20" markerHeight="20" orient="auto"><path d="m 1 5 l 0 -3 l 7 3 l -7 3 z" style="stroke-linecap: round; stroke-linejoin: round; stroke: var(--element-dragger-color); stroke-width: 1px; fill: white; stroke-dasharray: 10000, 1;"/></marker><marker id="messageflow-start-white-var_element_dragger_color_-9s7wdq4om2xl3aqezxlx2vvw1" viewBox="0 0 20 20" refX="6" refY="6" markerWidth="20" markerHeight="20" orient="auto"><circle cx="6" cy="6" r="3.5" style="stroke-linecap: round; stroke-linejoin: round; stroke: var(--element-dragger-color); stroke-width: 1px; fill: white; stroke-dasharray: 10000, 1;"/></marker></defs><g class="djs-group"><g class="djs-element djs-shape" data-element-id="Participant_pool_0" style="display: block;" transform="matrix(1 0 0 1 95 95)"><g class="djs-visual"><rect x="0" y="0" width="1605" height="948" rx="0" ry="0" style="stroke-linecap: round; stroke-linejoin: round; stroke: rgb(34, 36, 42); stroke-width: 1.5px; fill: white; fill-opacity: 0.95;"/><path style="fill: none; stroke-linecap: round; stroke-linejoin: round; stroke: rgb(34, 36, 42); stroke-width: 1.5px;" d="M30,0L30,948"/><text lineHeight="1.2" class="djs-label" style="font-family: Arial, sans-serif; font-size: 12px; font-weight: normal; fill: rgb(34, 36, 42);" transform="matrix(-1.83697e-16 -1 1 -1.83697e-16 0 948)"><tspan x="459.82421875" y="18.6">Bank</tspan></text></g><rect class="djs-hit djs-hit-no-move" x="0" y="0" width="1605" height="948" style="fill: none; stroke-opacity: 0; stroke: white; stroke-width: 15px;"/><rect class="djs-hit djs-hit-click-stroke" x="0" y="0" width="1605" height="948" style="fill: none; stroke-opacity: 0; stroke: white; stroke-width: 15px;"/><rect class="djs-hit djs-hit-all" x="0" y="0" width="30" height="948" style="fill: none; stroke-opacity: 0; stroke: white; stroke-width: 15px;"/><rect x="-5" y="-5" rx="4" width="1615" height="958" class="djs-outline" style="fill: none;"/></g><g class="djs-children"><g class="djs-group"><g class="djs-element djs-shape" data-element-id="lane_0_0" style="display: block;" transform="matrix(1 0 0 1 125 95)"><g class="djs-visual"><rect x="0" y="0" width="1575" height="948" rx="0" ry="0" style="stroke-linecap: round; stroke-linejoin: round; stroke: rgb(34, 36, 42); stroke-width: 1.5px; fill: white; fill-opacity: 0.25;"/><text lineHeight="1.2" class="djs-label" style="font-family: Arial, sans-serif; font-size: 12px; font-weight: normal; fill: rgb(34, 36, 42);" transform="matrix(-1.83697e-16 -1 1 -1.83697e-16 0 948)"><tspan x="395.12109375" y="18.6">Account Opening Department</tspan></text></g><rect class="djs-hit djs-hit-no-move" x="0" y="0" width="1575" height="948" style="fill: none; stroke-opacity: 0; stroke: white; stroke-width: 15px;"/><rect class="djs-hit djs-hit-click-stroke" x="0" y="0" width="1575" height="948" style="fill: none; stroke-opacity: 0; stroke: white; stroke-width: 15px;"/><rect class="djs-hit djs-hit-all" x="0" y="0" width="30" height="948" style="fill: none; stroke-opacity: 0; stroke: white; stroke-width: 15px;"/><rect x="-5" y="-5" rx="4" width="1585" height="958" class="djs-outline" style="fill: none;"/></g></g><g class="djs-group"><g class="djs-element djs-shape" data-element-id="ext_node_1" style="display: block;" transform="matrix(1 0 0 1 235 172)"><g class="djs-visual"><circle cx="18" cy="18" r="18" style="stroke-linecap: round; stroke-linejoin: round; stroke: rgb(34, 36, 42); stroke-width: 2px; fill: white; fill-opacity: 0.95;"/><path d="m 8.459999999999999,11.34 l 0,12.6 l 18.900000000000002,0 l 0,-12.6 z l 9.450000000000001,5.4 l 9.450000000000001,-5.4" style="fill: white; stroke-linecap: round; stroke-linejoin: round; stroke: rgb(34, 36, 42); stroke-width: 1px;"/></g><rect class="djs-hit djs-hit-all" x="0" y="0" width="36" height="36" style="fill: none; stroke-opacity: 0; stroke: white; stroke-width: 15px;"/><circle cx="18" cy="18" r="23" class="djs-outline" style="fill: none;"/></g></g><g class="djs-group"><g class="djs-element djs-shape" data-element-id="ext_node_1_label" style="display: block;" transform="matrix(1 0 0 1 216 208)"><g class="djs-visual"><text lineHeight="1.2" class="djs-label" style="font-family: Arial, sans-serif; font-size: 11px; font-weight: normal; fill: rgb(34, 36, 42);"><tspan x="0" y="9.899999999999999">Receive Online </tspan><tspan x="10.8828125" y="23.099999999999998">Application</tspan></text></g><rect class="djs-hit djs-hit-all" x="0" y="0" width="75" height="27" style="fill: none; stroke-opacity: 0; stroke: white; stroke-width: 15px;"/><rect x="-5" y="-5" rx="4" width="85" height="37" class="djs-outline" style="fill: none;"/></g></g><g class="djs-group"><g class="djs-element djs-shape" data-element-id="task_1" style="display: block;" transform="matrix(1 0 0 1 341 143)"><g class="djs-visual"><rect x="0" y="0" width="120" height="95" rx="10" ry="10" style="stroke-linecap: round; stroke-linejoin: round; stroke: rgb(34, 36, 42); stroke-width: 2px; fill: white; fill-opacity: 0.95;"/><text lineHeight="1.2" class="djs-label" style="font-family: Arial, sans-serif; font-size: 12px; font-weight: normal; fill: rgb(34, 36, 42);"><tspan x="36.4873046875" y="43.9">Evaluate </tspan><tspan x="30.984375" y="58.3">Application</tspan></text></g><rect class="djs-hit djs-hit-all" x="0" y="0" width="120" height="95" style="fill: none; stroke-opacity: 0; stroke: white; stroke-width: 15px;"/><rect x="-5" y="-5" rx="14" width="130" height="105" class="djs-outline" style="fill: none;"/></g></g><g class="djs-group"><g class="djs-element djs-shape" data-element-id="xor_2" style="display: block;" transform="matrix(1 0 0 1 531 172)"><g class="djs-visual"><polygon points="18,0 36,18 18,36 0,18" style="stroke-linecap: round; stroke-linejoin: round; stroke: rgb(34, 36, 42); stroke-width: 2px; fill: white; fill-opacity: 0.95;"/><path d="m 11.52,10.799999999999999 5.348571428571429,6.994285714285714 -5.348571428571429,6.994285714285714 2.4685714285714284,0 4.114285714285714,-5.374244571428571 4.114285714285714,5.374244571428571 2.4685714285714284,0 -5.348571428571429,-6.994285714285714 5.348571428571429,-6.994285714285714 -2.4685714285714284,0 -4.114285714285714,5.374244571428571 -4.114285714285714,-5.374244571428571 -2.4685714285714284,0 z" style="fill: rgb(34, 36, 42); stroke-linecap: round; stroke-linejoin: round; stroke: rgb(34, 36, 42); stroke-width: 1px;"/></g><rect class="djs-hit djs-hit-all" x="0" y="0" width="36" height="36" style="fill: none; stroke-opacity: 0; stroke: white; stroke-width: 15px;"/><rect x="2" y="2" rx="4" width="32" height="32" class="djs-outline" style="transform-box: fill-box; transform: rotate(45deg); transform-origin: center center; fill: none;"/></g></g><g class="djs-group"><g class="djs-element djs-shape" data-element-id="xor_2_label" style="display: block;" transform="matrix(1 0 0 1 523 208)"><g class="djs-visual"><text lineHeight="1.2" class="djs-label" style="font-family: Arial, sans-serif; font-size: 11px; font-weight: normal; fill: rgb(34, 36, 42);"><tspan x="0" y="9.899999999999999">Application </tspan><tspan x="0.3046875" y="23.099999999999998">Approved?</tspan></text></g><rect class="djs-hit djs-hit-all" x="0" y="0" width="53" height="27" style="fill: none; stroke-opacity: 0; stroke: white; stroke-width: 15px;"/><rect x="-5" y="-5" rx="4" width="63" height="37" class="djs-outline" style="fill: none;"/></g></g><g class="djs-group"><g class="djs-element djs-shape" data-element-id="task_3" style="display: block;" transform="matrix(1 0 0 1 672 143)"><g class="djs-visual"><rect x="0" y="0" width="120" height="95" rx="10" ry="10" style="stroke-linecap: round; stroke-linejoin: round; stroke: rgb(34, 36, 42); stroke-width: 2px; fill: white; fill-opacity: 0.95;"/><text lineHeight="1.2" class="djs-label" style="font-family: Arial, sans-serif; font-size: 12px; font-weight: normal; fill: rgb(34, 36, 42);"><tspan x="8.984375" y="43.9">Notify Customer by</tspan><tspan x="44.830078125" y="58.3">Email</tspan></text></g><rect class="djs-hit djs-hit-all" x="0" y="0" width="120" height="95" style="fill: none; stroke-opacity: 0; stroke: white; stroke-width: 15px;"/><rect x="-5" y="-5" rx="14" width="130" height="105" class="djs-outline" style="fill: none;"/></g></g><g class="djs-group"><g class="djs-element djs-shape" data-element-id="task_4" style="display: block;" transform="matrix(1 0 0 1 672 323)"><g class="djs-visual"><rect x="0" y="0" width="120" height="95" rx="10" ry="10" style="stroke-linecap: round; stroke-linejoin: round; stroke: rgb(34, 36, 42); stroke-width: 2px; fill: white; fill-opacity: 0.95;"/><text lineHeight="1.2" class="djs-label" style="font-family: Arial, sans-serif; font-size: 12px; font-weight: normal; fill: rgb(34, 36, 42);"><tspan x="26.1484375" y="43.9">Create Bank </tspan><tspan x="38.4873046875" y="58.3">Account</tspan></text></g><rect class="djs-hit djs-hit-all" x="0" y="0" width="120" height="95" style="fill: none; stroke-opacity: 0; stroke: white; stroke-width: 15px;"/><rect x="-5" y="-5" rx="14" width="130" height="105" class="djs-outline" style="fill: none;"/></g></g><g class="djs-group"><g class="djs-element djs-shape" data-element-id="parallel_5" style="display: block;" transform="matrix(1 0 0 1 862 352)"><g class="djs-visual"><polygon points="18,0 36,18 18,36 0,18" style="stroke-linecap: round; stroke-linejoin: round; stroke: rgb(34, 36, 42); stroke-width: 2px; fill: white; fill-opacity: 0.95;"/><path d="m 16.560000000000002,7.2 0,9 -9,0 0,3.5999999999999996 9,0 0,9 3.5999999999999996,0 0,-9 9,0 0,-3.5999999999999996 -9,0 0,-9 -3.5999999999999996,0 z" style="fill: rgb(34, 36, 42); stroke-linecap: round; stroke-linejoin: round; stroke: rgb(34, 36, 42); stroke-width: 1px;"/></g><rect class="djs-hit djs-hit-all" x="0" y="0" width="36" height="36" style="fill: none; stroke-opacity: 0; stroke: white; stroke-width: 15px;"/><rect x="2" y="2" rx="4" width="32" height="32" class="djs-outline" style="transform-box: fill-box; transform: rotate(45deg); transform-origin: center center; fill: none;"/></g></g><g class="djs-group"><g class="djs-element djs-shape" data-element-id="task_6" style="display: block;" transform="matrix(1 0 0 1 968 323)"><g class="djs-visual"><rect x="0" y="0" width="120" height="95" rx="10" ry="10" style="stroke-linecap: round; stroke-linejoin: round; stroke: rgb(34, 36, 42); stroke-width: 2px; fill: white; fill-opacity: 0.95;"/><text lineHeight="1.2" class="djs-label" style="font-family: Arial, sans-serif; font-size: 12px; font-weight: normal; fill: rgb(34, 36, 42);"><tspan x="19.2607421875" y="43.9">Send Welcome </tspan><tspan x="46.1611328125" y="58.3">Pack</tspan></text></g><rect class="djs-hit djs-hit-all" x="0" y="0" width="120" height="95" style="fill: none; stroke-opacity: 0; stroke: white; stroke-width: 15px;"/><rect x="-5" y="-5" rx="14" width="130" height="105" class="djs-outline" style="fill: none;"/></g></g><g class="djs-group"><g class="djs-element djs-shape" data-element-id="task_7" style="display: block;" transform="matrix(1 0 0 1 968 563)"><g class="djs-visual"><rect x="0" y="0" width="120" height="95" rx="10" ry="10" style="stroke-linecap: round; stroke-linejoin: round; stroke: rgb(34, 36, 42); stroke-width: 2px; fill: white; fill-opacity: 0.95;"/><text lineHeight="1.2" class="djs-label" style="font-family: Arial, sans-serif; font-size: 12px; font-weight: normal; fill: rgb(34, 36, 42);"><tspan x="15.8095703125" y="51.099999999999994">Send Bank Card</tspan></text></g><rect class="djs-hit djs-hit-all" x="0" y="0" width="120" height="95" style="fill: none; stroke-opacity: 0; stroke: white; stroke-width: 15px;"/><rect x="-5" y="-5" rx="14" width="130" height="105" class="djs-outline" style="fill: none;"/></g></g><g class="djs-group"><g class="djs-element djs-shape" data-element-id="task_8" style="display: block;" transform="matrix(1 0 0 1 968 803)"><g class="djs-visual"><rect x="0" y="0" width="120" height="95" rx="10" ry="10" style="stroke-linecap: round; stroke-linejoin: round; stroke: rgb(34, 36, 42); stroke-width: 2px; fill: white; fill-opacity: 0.95;"/><text lineHeight="1.2" class="djs-label" style="font-family: Arial, sans-serif; font-size: 12px; font-weight: normal; fill: rgb(34, 36, 42);"><tspan x="10.8095703125" y="51.099999999999994">Send PIN Number</tspan></text></g><rect class="djs-hit djs-hit-all" x="0" y="0" width="120" height="95" style="fill: none; stroke-opacity: 0; stroke: white; stroke-width: 15px;"/><rect x="-5" y="-5" rx="14" width="130" height="105" class="djs-outline" style="fill: none;"/></g></g><g class="djs-group"><g class="djs-element djs-shape" data-element-id="parallel_9" style="display: block;" transform="matrix(1 0 0 1 1158 352)"><g class="djs-visual"><polygon points="18,0 36,18 18,36 0,18" style="stroke-linecap: round; stroke-linejoin: round; stroke: rgb(34, 36, 42); stroke-width: 2px; fill: white; fill-opacity: 0.95;"/><path d="m 16.560000000000002,7.2 0,9 -9,0 0,3.5999999999999996 9,0 0,9 3.5999999999999996,0 0,-9 9,0 0,-3.5999999999999996 -9,0 0,-9 -3.5999999999999996,0 z" style="fill: rgb(34, 36, 42); stroke-linecap: round; stroke-linejoin: round; stroke: rgb(34, 36, 42); stroke-width: 1px;"/></g><rect class="djs-hit djs-hit-all" x="0" y="0" width="36" height="36" style="fill: none; stroke-opacity: 0; stroke: white; stroke-width: 15px;"/><rect x="2" y="2" rx="4" width="32" height="32" class="djs-outline" style="transform-box: fill-box; transform: rotate(45deg); transform-origin: center center; fill: none;"/></g></g><g class="djs-group"><g class="djs-element djs-shape" data-element-id="xor_10" style="display: block;" transform="matrix(1 0 0 1 1264 172)"><g class="djs-visual"><polygon points="18,0 36,18 18,36 0,18" style="stroke-linecap: round; stroke-linejoin: round; stroke: rgb(34, 36, 42); stroke-width: 2px; fill: white; fill-opacity: 0.95;"/><path d="m 11.52,10.799999999999999 5.348571428571429,6.994285714285714 -5.348571428571429,6.994285714285714 2.4685714285714284,0 4.114285714285714,-5.374244571428571 4.114285714285714,5.374244571428571 2.4685714285714284,0 -5.348571428571429,-6.994285714285714 5.348571428571429,-6.994285714285714 -2.4685714285714284,0 -4.114285714285714,5.374244571428571 -4.114285714285714,-5.374244571428571 -2.4685714285714284,0 z" style="fill: rgb(34, 36, 42); stroke-linecap: round; stroke-linejoin: round; stroke: rgb(34, 36, 42); stroke-width: 1px;"/></g><rect class="djs-hit djs-hit-all" x="0" y="0" width="36" height="36" style="fill: none; stroke-opacity: 0; stroke: white; stroke-width: 15px;"/><rect x="2" y="2" rx="4" width="32" height="32" class="djs-outline" style="transform-box: fill-box; transform: rotate(45deg); transform-origin: center center; fill: none;"/></g></g><g class="djs-group"><g class="djs-element djs-shape" data-element-id="node_11" style="display: block;" transform="matrix(1 0 0 1 1370 172)"><g class="djs-visual"><circle cx="18" cy="18" r="18" style="stroke-linecap: round; stroke-linejoin: round; stroke: rgb(34, 36, 42); stroke-width: 4px; fill: white; fill-opacity: 0.95;"/></g><rect class="djs-hit djs-hit-all" x="0" y="0" width="36" height="36" style="fill: none; stroke-opacity: 0; stroke: white; stroke-width: 15px;"/><circle cx="18" cy="18" r="24" class="djs-outline" style="fill: none;"/></g></g><g class="djs-group"><g class="djs-element djs-shape" data-element-id="node_11_label" style="display: block;" transform="matrix(1 0 0 1 1351 208)"><g class="djs-visual"><text lineHeight="1.2" class="djs-label" style="font-family: Arial, sans-serif; font-size: 11px; font-weight: normal; fill: rgb(34, 36, 42);"><tspan x="0" y="9.899999999999999">Process Ended</tspan></text></g><rect class="djs-hit djs-hit-all" x="0" y="0" width="75" height="14" style="fill: none; stroke-opacity: 0; stroke: white; stroke-width: 15px;"/><rect x="-5" y="-5" rx="4" width="85" height="24" class="djs-outline" style="fill: none;"/></g></g><g class="djs-group"><g class="djs-element djs-shape" data-element-id="DataReference_0_0" style="display: block;" transform="matrix(1 0 0 1 1546 155)"><g class="djs-visual"><path d="m 0,0 27.450980392156865,0 6.862745098039216,8.196721311475411 0,40.98360655737705 -34.31372549019608,0 0,-49.18032786885246 27.450980392156865,0 0,8.196721311475411 6.862745098039216,0" style="fill: white; stroke-linecap: round; stroke-linejoin: round; stroke: rgb(34, 36, 42); stroke-width: 2px; fill-opacity: 0.95;"/></g><rect class="djs-hit djs-hit-all" x="0" y="0" width="35" height="50" style="fill: none; stroke-opacity: 0; stroke: white; stroke-width: 15px;"/><rect x="0" y="0" rx="4" width="100" height="100" class="djs-outline" style="fill: none;"/></g></g><g class="djs-group"><g class="djs-element djs-shape" data-element-id="DataReference_0_0_label" style="display: block;" transform="matrix(1 0 0 1 1529 213)"><g class="djs-visual"><text lineHeight="1.2" class="djs-label" style="font-family: Arial, sans-serif; font-size: 11px; font-weight: normal; fill: rgb(34, 36, 42);"><tspan x="0" y="9.899999999999999">Application</tspan></text></g><rect class="djs-hit djs-hit-all" x="0" y="0" width="53" height="14" style="fill: none; stroke-opacity: 0; stroke: white; stroke-width: 15px;"/><rect x="-5" y="-5" rx="4" width="63" height="24" class="djs-outline" style="fill: none;"/></g></g><g class="djs-group"><g class="djs-element djs-shape" data-element-id="DataReference_0_1" style="display: block;" transform="matrix(1 0 0 1 1546 265)"><g class="djs-visual"><path d="m 0,0 27.450980392156865,0 6.862745098039216,8.196721311475411 0,40.98360655737705 -34.31372549019608,0 0,-49.18032786885246 27.450980392156865,0 0,8.196721311475411 6.862745098039216,0" style="fill: white; stroke-linecap: round; stroke-linejoin: round; stroke: rgb(34, 36, 42); stroke-width: 2px; fill-opacity: 0.95;"/></g><rect class="djs-hit djs-hit-all" x="0" y="0" width="35" height="50" style="fill: none; stroke-opacity: 0; stroke: white; stroke-width: 15px;"/><rect x="0" y="0" rx="4" width="100" height="100" class="djs-outline" style="fill: none;"/></g></g><g class="djs-group"><g class="djs-element djs-shape" data-element-id="DataReference_0_1_label" style="display: block;" transform="matrix(1 0 0 1 1536 323)"><g class="djs-visual"><text lineHeight="1.2" class="djs-label" style="font-family: Arial, sans-serif; font-size: 11px; font-weight: normal; fill: rgb(34, 36, 42);"><tspan x="0" y="9.899999999999999">Account</tspan></text></g><rect class="djs-hit djs-hit-all" x="0" y="0" width="40" height="14" style="fill: none; stroke-opacity: 0; stroke: white; stroke-width: 15px;"/><rect x="-5" y="-5" rx="4" width="50" height="24" class="djs-outline" style="fill: none;"/></g></g><g class="djs-group"><g class="djs-element djs-shape" data-element-id="DataReference_0_2" style="display: block;" transform="matrix(1 0 0 1 1546 375)"><g class="djs-visual"><path d="m 0,0 27.450980392156865,0 6.862745098039216,8.196721311475411 0,40.98360655737705 -34.31372549019608,0 0,-49.18032786885246 27.450980392156865,0 0,8.196721311475411 6.862745098039216,0" style="fill: white; stroke-linecap: round; stroke-linejoin: round; stroke: rgb(34, 36, 42); stroke-width: 2px; fill-opacity: 0.95;"/></g><rect class="djs-hit djs-hit-all" x="0" y="0" width="35" height="50" style="fill: none; stroke-opacity: 0; stroke: white; stroke-width: 15px;"/><rect x="0" y="0" rx="4" width="100" height="100" class="djs-outline" style="fill: none;"/></g></g><g class="djs-group"><g class="djs-element djs-shape" data-element-id="DataReference_0_2_label" style="display: block;" transform="matrix(1 0 0 1 1519 433)"><g class="djs-visual"><text lineHeight="1.2" class="djs-label" style="font-family: Arial, sans-serif; font-size: 11px; font-weight: normal; fill: rgb(34, 36, 42);"><tspan x="0" y="9.899999999999999">Welcome Pack</tspan></text></g><rect class="djs-hit djs-hit-all" x="0" y="0" width="73" height="14" style="fill: none; stroke-opacity: 0; stroke: white; stroke-width: 15px;"/><rect x="-5" y="-5" rx="4" width="83" height="24" class="djs-outline" style="fill: none;"/></g></g><g class="djs-group"><g class="djs-element djs-shape" data-element-id="DataReference_0_3" style="display: block;" transform="matrix(1 0 0 1 1546 485)"><g class="djs-visual"><path d="m 0,0 27.450980392156865,0 6.862745098039216,8.196721311475411 0,40.98360655737705 -34.31372549019608,0 0,-49.18032786885246 27.450980392156865,0 0,8.196721311475411 6.862745098039216,0" style="fill: white; stroke-linecap: round; stroke-linejoin: round; stroke: rgb(34, 36, 42); stroke-width: 2px; fill-opacity: 0.95;"/></g><rect class="djs-hit djs-hit-all" x="0" y="0" width="35" height="50" style="fill: none; stroke-opacity: 0; stroke: white; stroke-width: 15px;"/><rect x="0" y="0" rx="4" width="100" height="100" class="djs-outline" style="fill: none;"/></g></g><g class="djs-group"><g class="djs-element djs-shape" data-element-id="DataReference_0_3_label" style="display: block;" transform="matrix(1 0 0 1 1530 543)"><g class="djs-visual"><text lineHeight="1.2" class="djs-label" style="font-family: Arial, sans-serif; font-size: 11px; font-weight: normal; fill: rgb(34, 36, 42);"><tspan x="0" y="9.899999999999999">Bank Card</tspan></text></g><rect class="djs-hit djs-hit-all" x="0" y="0" width="52" height="14" style="fill: none; stroke-opacity: 0; stroke: white; stroke-width: 15px;"/><rect x="-5" y="-5" rx="4" width="62" height="24" class="djs-outline" style="fill: none;"/></g></g><g class="djs-group"><g class="djs-element djs-shape" data-element-id="DataReference_0_4" style="display: block;" transform="matrix(1 0 0 1 1546 595)"><g class="djs-visual"><path d="m 0,0 27.450980392156865,0 6.862745098039216,8.196721311475411 0,40.98360655737705 -34.31372549019608,0 0,-49.18032786885246 27.450980392156865,0 0,8.196721311475411 6.862745098039216,0" style="fill: white; stroke-linecap: round; stroke-linejoin: round; stroke: rgb(34, 36, 42); stroke-width: 2px; fill-opacity: 0.95;"/></g><rect class="djs-hit djs-hit-all" x="0" y="0" width="35" height="50" style="fill: none; stroke-opacity: 0; stroke: white; stroke-width: 15px;"/><rect x="0" y="0" rx="4" width="100" height="100" class="djs-outline" style="fill: none;"/></g></g><g class="djs-group"><g class="djs-element djs-shape" data-element-id="DataReference_0_4_label" style="display: block;" transform="matrix(1 0 0 1 1525 653)"><g class="djs-visual"><text lineHeight="1.2" class="djs-label" style="font-family: Arial, sans-serif; font-size: 11px; font-weight: normal; fill: rgb(34, 36, 42);"><tspan x="0" y="9.899999999999999">PIN Number</tspan></text></g><rect class="djs-hit djs-hit-all" x="0" y="0" width="62" height="14" style="fill: none; stroke-opacity: 0; stroke: white; stroke-width: 15px;"/><rect x="-5" y="-5" rx="4" width="72" height="24" class="djs-outline" style="fill: none;"/></g></g><g class="djs-group"><g class="djs-element djs-shape" data-element-id="TextAnnotation_ext_node_1" style="display: block;" transform="matrix(1 0 0 1 235 280)"><g class="djs-visual"><rect x="0" y="0" width="89" height="37" rx="0" ry="0" style="stroke-linecap: round; stroke-linejoin: round; stroke: none; stroke-width: 2px; fill: none;"/><path d="m 0, 0 m 10,0 l -10,0 l 0,37 l 10,0" style="fill: none; stroke-linecap: round; stroke-linejoin: round; stroke: rgb(34, 36, 42); stroke-width: 2px;"/><text lineHeight="1.2" class="djs-label" style="font-family: Arial, sans-serif; font-size: 12px; font-weight: normal; fill: rgb(34, 36, 42);"><tspan x="7" y="17.799999999999997">Write to: </tspan><tspan x="7" y="32.199999999999996">Application</tspan></text></g><rect class="djs-hit djs-hit-all" x="0" y="0" width="89" height="37" style="fill: none; stroke-opacity: 0; stroke: white; stroke-width: 15px;"/><rect x="-5" y="-5" rx="4" width="99" height="47" class="djs-outline" style="fill: none;"/></g></g><g class="djs-group"><g class="djs-element djs-shape" data-element-id="TextAnnotation_task_1" style="display: block;" transform="matrix(1 0 0 1 341 280)"><g class="djs-visual"><rect x="0" y="0" width="173" height="21" rx="0" ry="0" style="stroke-linecap: round; stroke-linejoin: round; stroke: none; stroke-width: 2px; fill: none;"/><path d="m 0, 0 m 10,0 l -10,0 l 0,21 l 10,0" style="fill: none; stroke-linecap: round; stroke-linejoin: round; stroke: rgb(34, 36, 42); stroke-width: 2px;"/><text lineHeight="1.2" class="djs-label" style="font-family: Arial, sans-serif; font-size: 12px; font-weight: normal; fill: rgb(34, 36, 42);"><tspan x="7" y="17.799999999999997">Read from: Application</tspan></text></g><rect class="djs-hit djs-hit-all" x="0" y="0" width="173" height="21" style="fill: none; stroke-opacity: 0; stroke: white; stroke-width: 15px;"/><rect x="-5" y="-5" rx="4" width="183" height="31" class="djs-outline" style="fill: none;"/></g></g><g class="djs-group"><g class="djs-element djs-shape" data-element-id="TextAnnotation_task_4" style="display: block;" transform="matrix(1 0 0 1 672 460)"><g class="djs-visual"><rect x="0" y="0" width="173" height="53" rx="0" ry="0" style="stroke-linecap: round; stroke-linejoin: round; stroke: none; stroke-width: 2px; fill: none;"/><path d="m 0, 0 m 10,0 l -10,0 l 0,53 l 10,0" style="fill: none; stroke-linecap: round; stroke-linejoin: round; stroke: rgb(34, 36, 42); stroke-width: 2px;"/><text lineHeight="1.2" class="djs-label" style="font-family: Arial, sans-serif; font-size: 12px; font-weight: normal; fill: rgb(34, 36, 42);"><tspan x="7" y="17.799999999999997">Write to: Account</tspan><tspan x="7" y="32.199999999999996"/><tspan x="7" y="46.599999999999994">Read from: Application</tspan></text></g><rect class="djs-hit djs-hit-all" x="0" y="0" width="173" height="53" style="fill: none; stroke-opacity: 0; stroke: white; stroke-width: 15px;"/><rect x="-5" y="-5" rx="4" width="183" height="63" class="djs-outline" style="fill: none;"/></g></g><g class="djs-group"><g class="djs-element djs-shape" data-element-id="TextAnnotation_task_6" style="display: block;" transform="matrix(1 0 0 1 968 460)"><g class="djs-visual"><rect x="0" y="0" width="173" height="37" rx="0" ry="0" style="stroke-linecap: round; stroke-linejoin: round; stroke: none; stroke-width: 2px; fill: none;"/><path d="m 0, 0 m 10,0 l -10,0 l 0,37 l 10,0" style="fill: none; stroke-linecap: round; stroke-linejoin: round; stroke: rgb(34, 36, 42); stroke-width: 2px;"/><text lineHeight="1.2" class="djs-label" style="font-family: Arial, sans-serif; font-size: 12px; font-weight: normal; fill: rgb(34, 36, 42);"><tspan x="7" y="17.799999999999997">Read from: Account, </tspan><tspan x="7" y="32.199999999999996">Welcome Pack</tspan></text></g><rect class="djs-hit djs-hit-all" x="0" y="0" width="173" height="37" style="fill: none; stroke-opacity: 0; stroke: white; stroke-width: 15px;"/><rect x="-5" y="-5" rx="4" width="183" height="47" class="djs-outline" style="fill: none;"/></g></g><g class="djs-group"><g class="djs-element djs-shape" data-element-id="TextAnnotation_task_7" style="display: block;" transform="matrix(1 0 0 1 968 700)"><g class="djs-visual"><rect x="0" y="0" width="173" height="37" rx="0" ry="0" style="stroke-linecap: round; stroke-linejoin: round; stroke: none; stroke-width: 2px; fill: none;"/><path d="m 0, 0 m 10,0 l -10,0 l 0,37 l 10,0" style="fill: none; stroke-linecap: round; stroke-linejoin: round; stroke: rgb(34, 36, 42); stroke-width: 2px;"/><text lineHeight="1.2" class="djs-label" style="font-family: Arial, sans-serif; font-size: 12px; font-weight: normal; fill: rgb(34, 36, 42);"><tspan x="7" y="17.799999999999997">Read from: Account, Bank </tspan><tspan x="7" y="32.199999999999996">Card</tspan></text></g><rect class="djs-hit djs-hit-all" x="0" y="0" width="173" height="37" style="fill: none; stroke-opacity: 0; stroke: white; stroke-width: 15px;"/><rect x="-5" y="-5" rx="4" width="183" height="47" class="djs-outline" style="fill: none;"/></g></g><g class="djs-group"><g class="djs-element djs-shape" data-element-id="TextAnnotation_task_8" style="display: block;" transform="matrix(1 0 0 1 968 940)"><g class="djs-visual"><rect x="0" y="0" width="173" height="37" rx="0" ry="0" style="stroke-linecap: round; stroke-linejoin: round; stroke: none; stroke-width: 2px; fill: none;"/><path d="m 0, 0 m 10,0 l -10,0 l 0,37 l 10,0" style="fill: none; stroke-linecap: round; stroke-linejoin: round; stroke: rgb(34, 36, 42); stroke-width: 2px;"/><text lineHeight="1.2" class="djs-label" style="font-family: Arial, sans-serif; font-size: 12px; font-weight: normal; fill: rgb(34, 36, 42);"><tspan x="7" y="17.799999999999997">Read from: Account, PIN </tspan><tspan x="7" y="32.199999999999996">Number</tspan></text></g><rect class="djs-hit djs-hit-all" x="0" y="0" width="173" height="37" style="fill: none; stroke-opacity: 0; stroke: white; stroke-width: 15px;"/><rect x="-5" y="-5" rx="4" width="183" height="47" class="djs-outline" style="fill: none;"/></g></g><g class="djs-group"><g class="djs-element djs-connection" data-element-id="Flow_ext_node_1_task_1" style="display: block;"><g class="djs-visual"><path data-corner-radius="5" style="fill: none; stroke-linecap: round; stroke-linejoin: round; stroke: rgb(34, 36, 42); stroke-width: 2px; marker-end: url('#sequenceflow-end-white-hsl_225_10_15_-9s7wdq4om2xl3aqezxlx2vvw1');" d="M271,190L341,190"/></g><rect x="266" y="185" rx="4" width="80" height="10" class="djs-outline" style="fill: none;"/><path d="M271,190L341,190" class="djs-hit djs-hit-stroke" style="fill: none; stroke-opacity: 0; stroke: white; stroke-width: 15px;"/></g></g><g class="djs-group"><g class="djs-element djs-connection" data-element-id="Flow_task_1_xor_2" style="display: block;"><g class="djs-visual"><path data-corner-radius="5" style="fill: none; stroke-linecap: round; stroke-linejoin: round; stroke: rgb(34, 36, 42); stroke-width: 2px; marker-end: url('#sequenceflow-end-white-hsl_225_10_15_-9s7wdq4om2xl3aqezxlx2vvw1');" d="M461,190L531,190"/></g><rect x="456" y="185" rx="4" width="80" height="10" class="djs-outline" style="fill: none;"/><path d="M461,190L531,190" class="djs-hit djs-hit-stroke" style="fill: none; stroke-opacity: 0; stroke: white; stroke-width: 15px;"/></g></g><g class="djs-group"><g class="djs-element djs-connection" data-element-id="Flow_xor_2_task_3" style="display: block;"><g class="djs-visual"><path data-corner-radius="5" style="fill: none; stroke-linecap: round; stroke-linejoin: round; stroke: rgb(34, 36, 42); stroke-width: 2px; marker-end: url('#sequenceflow-end-white-hsl_225_10_15_-9s7wdq4om2xl3aqezxlx2vvw1');" d="M567,190L672,190"/></g><rect x="562" y="185" rx="4" width="115" height="10" class="djs-outline" style="fill: none;"/><path d="M567,190L672,190" class="djs-hit djs-hit-stroke" style="fill: none; stroke-opacity: 0; stroke: white; stroke-width: 15px;"/></g></g><g class="djs-group"><g class="djs-element djs-shape" data-element-id="Flow_xor_2_task_3_label" style="display: block;" transform="matrix(1 0 0 1 585 175)"><g class="djs-visual"><text lineHeight="1.2" class="djs-label" style="font-family: Arial, sans-serif; font-size: 11px; font-weight: normal; fill: rgb(34, 36, 42);"><tspan x="0" y="9.899999999999999">Rejected</tspan></text></g><rect class="djs-hit djs-hit-all" x="0" y="0" width="44" height="14" style="fill: none; stroke-opacity: 0; stroke: white; stroke-width: 15px;"/><rect x="-5" y="-5" rx="4" width="54" height="24" class="djs-outline" style="fill: none;"/></g></g><g class="djs-group"><g class="djs-element djs-connection" data-element-id="Flow_task_3_xor_10" style="display: block;"><g class="djs-visual"><path data-corner-radius="5" style="fill: none; stroke-linecap: round; stroke-linejoin: round; stroke: rgb(34, 36, 42); stroke-width: 2px; marker-end: url('#sequenceflow-end-white-hsl_225_10_15_-9s7wdq4om2xl3aqezxlx2vvw1');" d="M792,190L1264,190"/></g><rect x="787" y="185" rx="4" width="482" height="10" class="djs-outline" style="fill: none;"/><path d="M792,190L1264,190" class="djs-hit djs-hit-stroke" style="fill: none; stroke-opacity: 0; stroke: white; stroke-width: 15px;"/></g></g><g class="djs-group"><g class="djs-element djs-connection" data-element-id="Flow_xor_2_task_4" style="display: block;"><g class="djs-visual"><path data-corner-radius="5" style="fill: none; stroke-linecap: round; stroke-linejoin: round; stroke: rgb(34, 36, 42); stroke-width: 2px; marker-end: url('#sequenceflow-end-white-hsl_225_10_15_-9s7wdq4om2xl3aqezxlx2vvw1');" d="M549,208L549,365C549,367.5,551.5,370,554,370L672,370"/></g><rect x="544" y="203" rx="4" width="133" height="172" class="djs-outline" style="fill: none;"/><path d="M549,208L549,370L672,370" class="djs-hit djs-hit-stroke" style="fill: none; stroke-opacity: 0; stroke: white; stroke-width: 15px;"/></g></g><g class="djs-group"><g class="djs-element djs-shape" data-element-id="Flow_xor_2_task_4_label" style="display: block;" transform="matrix(1 0 0 1 566 355)"><g class="djs-visual"><text lineHeight="1.2" class="djs-label" style="font-family: Arial, sans-serif; font-size: 11px; font-weight: normal; fill: rgb(34, 36, 42);"><tspan x="0" y="9.899999999999999">Approved</tspan></text></g><rect class="djs-hit djs-hit-all" x="0" y="0" width="47" height="14" style="fill: none; stroke-opacity: 0; stroke: white; stroke-width: 15px;"/><rect x="-5" y="-5" rx="4" width="57" height="24" class="djs-outline" style="fill: none;"/></g></g><g class="djs-group"><g class="djs-element djs-connection" data-element-id="Flow_task_4_parallel_5" style="display: block;"><g class="djs-visual"><path data-corner-radius="5" style="fill: none; stroke-linecap: round; stroke-linejoin: round; stroke: rgb(34, 36, 42); stroke-width: 2px; marker-end: url('#sequenceflow-end-white-hsl_225_10_15_-9s7wdq4om2xl3aqezxlx2vvw1');" d="M792,370L862,370"/></g><rect x="787" y="365" rx="4" width="80" height="10" class="djs-outline" style="fill: none;"/><path d="M792,370L862,370" class="djs-hit djs-hit-stroke" style="fill: none; stroke-opacity: 0; stroke: white; stroke-width: 15px;"/></g></g><g class="djs-group"><g class="djs-element djs-connection" data-element-id="Flow_parallel_5_task_6" style="display: block;"><g class="djs-visual"><path data-corner-radius="5" style="fill: none; stroke-linecap: round; stroke-linejoin: round; stroke: rgb(34, 36, 42); stroke-width: 2px; marker-end: url('#sequenceflow-end-white-hsl_225_10_15_-9s7wdq4om2xl3aqezxlx2vvw1');" d="M898,370L968,370"/></g><rect x="893" y="365" rx="4" width="80" height="10" class="djs-outline" style="fill: none;"/><path d="M898,370L968,370" class="djs-hit djs-hit-stroke" style="fill: none; stroke-opacity: 0; stroke: white; stroke-width: 15px;"/></g></g><g class="djs-group"><g class="djs-element djs-connection" data-element-id="Flow_task_6_parallel_9" style="display: block;"><g class="djs-visual"><path data-corner-radius="5" style="fill: none; stroke-linecap: round; stroke-linejoin: round; stroke: rgb(34, 36, 42); stroke-width: 2px; marker-end: url('#sequenceflow-end-white-hsl_225_10_15_-9s7wdq4om2xl3aqezxlx2vvw1');" d="M1088,370L1158,370"/></g><rect x="1083" y="365" rx="4" width="80" height="10" class="djs-outline" style="fill: none;"/><path d="M1088,370L1158,370" class="djs-hit djs-hit-stroke" style="fill: none; stroke-opacity: 0; stroke: white; stroke-width: 15px;"/></g></g><g class="djs-group"><g class="djs-element djs-connection" data-element-id="Flow_parallel_5_task_7" style="display: block;"><g class="djs-visual"><path data-corner-radius="5" style="fill: none; stroke-linecap: round; stroke-linejoin: round; stroke: rgb(34, 36, 42); stroke-width: 2px; marker-end: url('#sequenceflow-end-white-hsl_225_10_15_-9s7wdq4om2xl3aqezxlx2vvw1');" d="M880,388L880,605C880,607.5,882.5,610,885,610L968,610"/></g><rect x="875" y="383" rx="4" width="98" height="232" class="djs-outline" style="fill: none;"/><path d="M880,388L880,610L968,610" class="djs-hit djs-hit-stroke" style="fill: none; stroke-opacity: 0; stroke: white; stroke-width: 15px;"/></g></g><g class="djs-group"><g class="djs-element djs-connection" data-element-id="Flow_task_7_parallel_9" style="display: block;"><g class="djs-visual"><path data-corner-radius="5" style="fill: none; stroke-linecap: round; stroke-linejoin: round; stroke: rgb(34, 36, 42); stroke-width: 2px; marker-end: url('#sequenceflow-end-white-hsl_225_10_15_-9s7wdq4om2xl3aqezxlx2vvw1');" d="M1088,610L1171,610C1173.5,610,1176,607.5,1176,605L1176,388"/></g><rect x="1083" y="383" rx="4" width="98" height="232" class="djs-outline" style="fill: none;"/><path d="M1088,610L1176,610L1176,388" class="djs-hit djs-hit-stroke" style="fill: none; stroke-opacity: 0; stroke: white; stroke-width: 15px;"/></g></g><g class="djs-group"><g class="djs-element djs-connection" data-element-id="Flow_parallel_5_task_8" style="display: block;"><g class="djs-visual"><path data-corner-radius="5" style="fill: none; stroke-linecap: round; stroke-linejoin: round; stroke: rgb(34, 36, 42); stroke-width: 2px; marker-end: url('#sequenceflow-end-white-hsl_225_10_15_-9s7wdq4om2xl3aqezxlx2vvw1');" d="M880,388L880,845C880,847.5,882.5,850,885,850L968,850"/></g><rect x="875" y="383" rx="4" width="98" height="472" class="djs-outline" style="fill: none;"/><path d="M880,388L880,850L968,850" class="djs-hit djs-hit-stroke" style="fill: none; stroke-opacity: 0; stroke: white; stroke-width: 15px;"/></g></g><g class="djs-group"><g class="djs-element djs-connection" data-element-id="Flow_task_8_parallel_9" style="display: block;"><g class="djs-visual"><path data-corner-radius="5" style="fill: none; stroke-linecap: round; stroke-linejoin: round; stroke: rgb(34, 36, 42); stroke-width: 2px; marker-end: url('#sequenceflow-end-white-hsl_225_10_15_-9s7wdq4om2xl3aqezxlx2vvw1');" d="M1088,850L1171,850C1173.5,850,1176,847.5,1176,845L1176,388"/></g><rect x="1083" y="383" rx="4" width="98" height="472" class="djs-outline" style="fill: none;"/><path d="M1088,850L1176,850L1176,388" class="djs-hit djs-hit-stroke" style="fill: none; stroke-opacity: 0; stroke: white; stroke-width: 15px;"/></g></g><g class="djs-group"><g class="djs-element djs-connection" data-element-id="Flow_parallel_9_xor_10" style="display: block;"><g class="djs-visual"><path data-corner-radius="5" style="fill: none; stroke-linecap: round; stroke-linejoin: round; stroke: rgb(34, 36, 42); stroke-width: 2px; marker-end: url('#sequenceflow-end-white-hsl_225_10_15_-9s7wdq4om2xl3aqezxlx2vvw1');" d="M1194,370L1277,370C1279.5,370,1282,367.5,1282,365L1282,208"/></g><rect x="1189" y="203" rx="4" width="98" height="172" class="djs-outline" style="fill: none;"/><path d="M1194,370L1282,370L1282,208" class="djs-hit djs-hit-stroke" style="fill: none; stroke-opacity: 0; stroke: white; stroke-width: 15px;"/></g></g><g class="djs-group"><g class="djs-element djs-connection" data-element-id="Flow_xor_10_node_11" style="display: block;"><g class="djs-visual"><path data-corner-radius="5" style="fill: none; stroke-linecap: round; stroke-linejoin: round; stroke: rgb(34, 36, 42); stroke-width: 2px; marker-end: url('#sequenceflow-end-white-hsl_225_10_15_-9s7wdq4om2xl3aqezxlx2vvw1');" d="M1300,190L1370,190"/></g><rect x="1295" y="185" rx="4" width="80" height="10" class="djs-outline" style="fill: none;"/><path d="M1300,190L1370,190" class="djs-hit djs-hit-stroke" style="fill: none; stroke-opacity: 0; stroke: white; stroke-width: 15px;"/></g></g><g class="djs-group"><g class="djs-element djs-connection" data-element-id="Association_ext_node_1" style="display: block;"><g class="djs-visual"><path data-corner-radius="5" style="fill: none; stroke-linecap: round; stroke-linejoin: round; stroke: rgb(34, 36, 42); stroke-width: 2px; stroke-dasharray: 0, 5;" d="M253,208L235,280"/></g><rect x="230" y="203" rx="4" width="28" height="82" class="djs-outline" style="fill: none;"/><path d="M253,208L235,280" class="djs-hit djs-hit-stroke" style="fill: none; stroke-opacity: 0; stroke: white; stroke-width: 15px;"/></g></g><g class="djs-group"><g class="djs-element djs-connection" data-element-id="Association_task_1" style="display: block;"><g class="djs-visual"><path data-corner-radius="5" style="fill: none; stroke-linecap: round; stroke-linejoin: round; stroke: rgb(34, 36, 42); stroke-width: 2px; stroke-dasharray: 0, 5;" d="M401,237.5L341,280"/></g><rect x="336" y="232.5" rx="4" width="70" height="52.5" class="djs-outline" style="fill: none;"/><path d="M401,237.5L341,280" class="djs-hit djs-hit-stroke" style="fill: none; stroke-opacity: 0; stroke: white; stroke-width: 15px;"/></g></g><g class="djs-group"><g class="djs-element djs-connection" data-element-id="Association_task_4" style="display: block;"><g class="djs-visual"><path data-corner-radius="5" style="fill: none; stroke-linecap: round; stroke-linejoin: round; stroke: rgb(34, 36, 42); stroke-width: 2px; stroke-dasharray: 0, 5;" d="M732,417.5L672,460"/></g><rect x="667" y="412.5" rx="4" width="70" height="52.5" class="djs-outline" style="fill: none;"/><path d="M732,417.5L672,460" class="djs-hit djs-hit-stroke" style="fill: none; stroke-opacity: 0; stroke: white; stroke-width: 15px;"/></g></g><g class="djs-group"><g class="djs-element djs-connection" data-element-id="Association_task_6" style="display: block;"><g class="djs-visual"><path data-corner-radius="5" style="fill: none; stroke-linecap: round; stroke-linejoin: round; stroke: rgb(34, 36, 42); stroke-width: 2px; stroke-dasharray: 0, 5;" d="M1028,417.5L968,460"/></g><rect x="963" y="412.5" rx="4" width="70" height="52.5" class="djs-outline" style="fill: none;"/><path d="M1028,417.5L968,460" class="djs-hit djs-hit-stroke" style="fill: none; stroke-opacity: 0; stroke: white; stroke-width: 15px;"/></g></g><g class="djs-group"><g class="djs-element djs-connection" data-element-id="Association_task_7" style="display: block;"><g class="djs-visual"><path data-corner-radius="5" style="fill: none; stroke-linecap: round; stroke-linejoin: round; stroke: rgb(34, 36, 42); stroke-width: 2px; stroke-dasharray: 0, 5;" d="M1028,657.5L968,700"/></g><rect x="963" y="652.5" rx="4" width="70" height="52.5" class="djs-outline" style="fill: none;"/><path d="M1028,657.5L968,700" class="djs-hit djs-hit-stroke" style="fill: none; stroke-opacity: 0; stroke: white; stroke-width: 15px;"/></g></g><g class="djs-group"><g class="djs-element djs-connection" data-element-id="Association_task_8" style="display: block;"><g class="djs-visual"><path data-corner-radius="5" style="fill: none; stroke-linecap: round; stroke-linejoin: round; stroke: rgb(34, 36, 42); stroke-width: 2px; stroke-dasharray: 0, 5;" d="M1028,897.5L968,940"/></g><rect x="963" y="892.5" rx="4" width="70" height="52.5" class="djs-outline" style="fill: none;"/><path d="M1028,897.5L968,940" class="djs-hit djs-hit-stroke" style="fill: none; stroke-opacity: 0; stroke: white; stroke-width: 15px;"/></g></g></g></g></svg>